<svg xmlns="http://www.w3.org/2000/svg" viewBox="0 0 40 40"><title>scripting element</title><g id="afdeb008-816a-475b-b296-3e7559caf7b7" data-name="icon"><path d="M22.14,40H17.86a1.76,1.76,0,0,1-1.69-1.26L15,35a15.74,15.74,0,0,1-2.1-.86L9.5,36a1.76,1.76,0,0,1-2.09-.31l-3-3a1.77,1.77,0,0,1-.31-2.09L5.9,27.11A15.72,15.72,0,0,1,5,25l-3.7-1.13a1.76,1.76,0,0,1-1.26-1.7V17.86a1.76,1.76,0,0,1,1.26-1.7L5,15a15.77,15.77,0,0,1,.9-2.19L4.08,9.46a1.77,1.77,0,0,1,.31-2.09l3-3A1.76,1.76,0,0,1,9.5,4l3.37,1.8a15.66,15.66,0,0,1,2.19-.9l1.11-3.67A1.76,1.76,0,0,1,17.86,0h4.27a1.76,1.76,0,0,1,1.69,1.26l1.12,3.69a15.69,15.69,0,0,1,2.17.9L30.5,4a1.76,1.76,0,0,1,2.09.31l3,3a1.77,1.77,0,0,1,.31,2.09L34.1,12.89A15.76,15.76,0,0,1,35,15l3.72,1.13a1.76,1.76,0,0,1,1.26,1.7v4.29a1.76,1.76,0,0,1-1.26,1.7L34.94,25a15.88,15.88,0,0,1-.86,2.09l1.85,3.47a1.77,1.77,0,0,1-.31,2.09l-3,3A1.76,1.76,0,0,1,30.5,36L27,34.11A15.67,15.67,0,0,1,25,35l-1.14,3.77A1.76,1.76,0,0,1,22.14,40ZM18,38H22l1.4-4.63.52-.15a13.7,13.7,0,0,0,2.68-1.11l.48-.26,4.25,2.28,2.78-2.79-2.27-4.26.26-.47a13.81,13.81,0,0,0,1.12-2.7l.15-.52,4.6-1.4V18l-4.59-1.4-.15-.52a13.81,13.81,0,0,0-1.12-2.75l-.26-.47,2.25-4.22L31.3,5.88,27.11,8.12l-.48-.27A13.66,13.66,0,0,0,23.86,6.7l-.52-.15L22,2H18L16.66,6.54l-.52.15a13.66,13.66,0,0,0-2.8,1.15l-.48.26L8.7,5.88,5.92,8.67l2.23,4.18-.26.47a13.77,13.77,0,0,0-1.14,2.8l-.15.52L2.06,18v4l4.56,1.39.15.52a13.74,13.74,0,0,0,1.14,2.75l.26.47L5.92,31.33,8.7,34.12l4.23-2.27.47.26a13.71,13.71,0,0,0,2.71,1.11l.52.15ZM38.1,18.07Z" fill="#6a7a81"></path><path d="M27.24,19.13l-10.76-6A1,1,0,0,0,15,14V26a1,1,0,0,0,1.48.87l10.76-6A1,1,0,0,0,27.24,19.13Z" fill="#6a7a81"></path></g></svg>