<svg xmlns="http://www.w3.org/2000/svg" viewBox="0 0 40 40"><title>workflow async</title><g id="fce2ef55-b2c0-4398-ab65-08ba3af6f18e" data-name="icon"><path d="M24.6,18.89H18.89V14.44H17.11v4.44h-5.9A1.21,1.21,0,0,0,10,20.1v3.23h1.78V20.67H24.22v2.67H26V20.39C26,19.08,25.36,18.89,24.6,18.89Z" fill="var(--cds-alias-utility-light-blue)"></path><rect x="6.44" y="25.11" width="9.78" height="4.44" rx="1" ry="1" fill="var(--cds-alias-utility-light-blue)"></rect><path d="M17.67,13.45l-5.36-2.56a1,1,0,0,1,.05-1.69l5.53-2.88a1,1,0,0,1,.85,0l5.36,2.56A1,1,0,0,1,24,10.54l-5.53,2.88A1,1,0,0,1,17.67,13.45Z" fill="var(--cds-alias-utility-light-blue)"></path><path d="M26.14,32H4V4H32V21.74h2V4a2,2,0,0,0-2-2H4A2,2,0,0,0,2,4V32a2,2,0,0,0,2,2H24.14Z" fill="var(--cds-alias-utility-blue)"></path><path d="M29.75,28.39a.78.78,0,0,0-.12-.22H28.48a3.21,3.21,0,0,1-3.2-3.06H21a1.32,1.32,0,0,0-1.24.95v2A4.24,4.24,0,0,0,21,29.56h7.56Z" fill="var(--cds-alias-utility-light-blue)"></path><path d="M28.16,23.74a1.22,1.22,0,0,0,0,2.43h6.31L24.36,36.29A1.22,1.22,0,1,0,26.08,38L36.19,27.89v6.31a1.22,1.22,0,1,0,2.43,0V23.74Z" fill="var(--cds-alias-utility-blue)"></path></g></svg>