<svg xmlns="http://www.w3.org/2000/svg" viewBox="0 0 40 40"><title>change credentials</title><g id="69a8175b-68a8-4e33-a16f-0a9f21368476" data-name="icon"><ellipse cx="20.12" cy="17.34" rx="5.04" ry="4.9" fill="#6a7a81"></ellipse><path d="M10.78,28.44a1.28,1.28,0,0,0-.32.85v4.26H29.54V29.29a1.28,1.28,0,0,0-.31-.85A11.94,11.94,0,0,0,20,24.63,11.94,11.94,0,0,0,10.78,28.44Z" fill="#6a7a81"></path><path d="M32,4H26V6h6V36H8V6h6V4H8A2,2,0,0,0,6,6V36a2,2,0,0,0,2,2H32a2,2,0,0,0,2-2V6A2,2,0,0,0,32,4Z" fill="#6a7a81"></path><path d="M24,2a2,2,0,0,0-2-2H18a2,2,0,0,0-2,2V9h8ZM22,7H18V2h4Z" fill="#6a7a81"></path></g></svg>