<svg xmlns="http://www.w3.org/2000/svg" viewBox="0 0 40 40">
  <title>change credentials</title>
  <g id="change-credentials" data-name="icon">
    <ellipse cx="20.12" cy="17.34" fill="hsl(200, 10%, 47%)" rx="5.04" ry="4.9"/>
    <path fill="hsl(200, 10%, 47%)" d="M10.78 28.44a1.28 1.28 0 0 0-.32.85v4.26h19.08v-4.26a1.28 1.28 0 0 0-.31-.85A11.94 11.94 0 0 0 20 24.63a11.94 11.94 0 0 0-9.22 3.81"/>
    <path fill="hsl(200, 10%, 47%)" d="M32 4h-6v2h6v30H8V6h6V4H8a2 2 0 0 0-2 2v30a2 2 0 0 0 2 2h24a2 2 0 0 0 2-2V6a2 2 0 0 0-2-2"/>
    <path fill="hsl(200, 10%, 47%)" d="M24 2a2 2 0 0 0-2-2h-4a2 2 0 0 0-2 2v7h8Zm-2 5h-4V2h4Z"/>
  </g>
</svg>
