<svg xmlns="http://www.w3.org/2000/svg" viewBox="0 0 40 40">
  <title>condition</title>
  <path id="condition" fill="hsl(200, 10%, 47%)" d="M38.92 17.59 22.38 1a3.44 3.44 0 0 0-4.77 0L1.08 17.59a3.4 3.4 0 0 0 0 4.78L17.62 39a3.36 3.36 0 0 0 4.77 0l16.53-16.62a3.4 3.4 0 0 0 0-4.79M37.49 21 21.1 37.44V26.7a6.59 6.59 0 0 1 6.56-6.61h.22V22a.5.5 0 0 0 .82.4l3.72-3.05a.52.52 0 0 0 0-.81l-3.72-3.08a.5.5 0 0 0-.82.4v2.22h-.22a8.57 8.57 0 0 0-7.56 4.58 8.57 8.57 0 0 0-7.56-4.58h-.22v-2.22a.5.5 0 0 0-.82-.4l-3.72 3.05a.52.52 0 0 0 0 .81l3.72 3.05a.5.5 0 0 0 .82-.4V20.1h.22a6.59 6.59 0 0 1 6.56 6.61v10.91h-.05L2.51 21a1.38 1.38 0 0 1 0-1.95L19 2.38a1.35 1.35 0 0 1 1.92 0L37.49 19a1.38 1.38 0 0 1 0 2" data-name="icon"/>
</svg>
