<svg xmlns="http://www.w3.org/2000/svg" viewBox="0 0 40 40"><title>custom condition</title><g id="f2907e36-5ef9-4d4d-86b0-fb8a1cd9aafd" data-name="icon"><path d="M20,39.9a3.32,3.32,0,0,1-2.37-1L1.19,22.38a3.38,3.38,0,0,1,0-4.75L17.63,1.09a3.42,3.42,0,0,1,4.74,0L38.81,17.62a3.38,3.38,0,0,1,0,4.75L22.37,38.91A3.32,3.32,0,0,1,20,39.9ZM20,2.1a1.33,1.33,0,0,0-1,.4L2.61,19a1.38,1.38,0,0,0,0,1.93L19,37.5a1.37,1.37,0,0,0,1.9,0L37.39,21a1.38,1.38,0,0,0,0-1.93L21,2.5A1.33,1.33,0,0,0,20,2.1Z" fill="#6a7a81"></path><path d="M12.58,18.11h-.22V15.9a.5.5,0,0,0-.81-.4l-3.7,3a.52.52,0,0,0,0,.8l3.7,3a.5.5,0,0,0,.81-.4V20.11h.22a6.55,6.55,0,0,1,6.52,6.57,8.55,8.55,0,0,1,1-4A8.52,8.52,0,0,0,12.58,18.11Z" fill="red"></path><path d="M28.65,15.5a.5.5,0,0,0-.81.4v2.21h-.22a8.55,8.55,0,0,0-8.52,8.57V37.54a1.37,1.37,0,0,0,1.85,0l.15-.15V26.68a6.55,6.55,0,0,1,6.52-6.57h.22V22a.5.5,0,0,0,.81.4l3.7-3a.52.52,0,0,0,0-.8Z" fill="#0079ad"></path></g></svg>