<svg xmlns="http://www.w3.org/2000/svg" viewBox="0 0 40 40">
  <title>end</title>
  <g id="end" data-name="icon">
    <circle cx="20.5" cy="16.53" r="5.31" fill="hsl(200, 10%, 47%)"/>
    <path fill="hsl(200, 10%, 47%)" d="M20 0A16.5 16.5 0 0 0 3.5 16.53a17.3 17.3 0 0 0 2.39 8.52 45.6 45.6 0 0 0 5.3 7.1A69.3 69.3 0 0 0 20 40a69.3 69.3 0 0 0 8.81-7.81 45.6 45.6 0 0 0 5.3-7.1 17.3 17.3 0 0 0 2.39-8.52A16.5 16.5 0 0 0 20 0m.17 27A10.53 10.53 0 1 1 30.7 16.53a10.53 10.53 0 0 1-10.53 10.53Z"/>
  </g>
</svg>
