<svg xmlns="http://www.w3.org/2000/svg" viewBox="0 0 40 40"><title>error handler</title><g id="b00f1f1d-455f-402b-bc35-ae97f578331f" data-name="icon"><path d="M20,39.9a3.32,3.32,0,0,1-2.37-1L1.19,22.38a3.38,3.38,0,0,1,0-4.75L17.63,1.09a3.42,3.42,0,0,1,4.74,0L38.81,17.62a3.38,3.38,0,0,1,0,4.75L22.37,38.91A3.32,3.32,0,0,1,20,39.9ZM20,2.1a1.33,1.33,0,0,0-1,.4L2.61,19a1.38,1.38,0,0,0,0,1.93L19,37.5a1.37,1.37,0,0,0,1.9,0L37.39,21a1.38,1.38,0,0,0,0-1.93L21,2.5A1.33,1.33,0,0,0,20,2.1Z" fill="var(--cds-alias-utility-gray)"></path><path d="M21.7,19.92l5.21-5.21a1.2,1.2,0,1,0-1.7-1.7L20,18.22,14.79,13a1.2,1.2,0,0,0-1.7,1.7l5.21,5.21-5.21,5.21a1.2,1.2,0,1,0,1.7,1.7L20,21.62l5.21,5.21a1.2,1.2,0,1,0,1.7-1.7Z" fill="var(--cds-alias-utility-red)"></path></g></svg>