<svg xmlns="http://www.w3.org/2000/svg" viewBox="0 0 40 40">
  <title>foreach</title>
  <g id="foreach" data-name="icon">
    <rect width="9.78" height="4.44" x="6.44" y="25.11" fill="hsl(198, 100%, 70%)" rx="1" ry="1"/>
    <path fill="hsl(198, 100%, 70%)" d="m17.67 13.45-5.36-2.56a1 1 0 0 1 .05-1.69l5.53-2.88a1 1 0 0 1 .85 0l5.36 2.56a1 1 0 0 1-.1 1.66l-5.53 2.88a1 1 0 0 1-.8.03m19 14.82a4.14 4.14 0 0 1-4 5.26h-6.28l1.43-1.43a1.2 1.2 0 1 0-1.7-1.7l-4.32 4.32L26.12 39a1.2 1.2 0 1 0 1.7-1.7l-1.43-1.43h6.27a6.54 6.54 0 0 0 5.86-9.5Zm-12.45-7.44h1.76v-.4a1.35 1.35 0 0 0-1.4-1.51h-5.69v-4.48h-1.78v4.44h-5.9A1.21 1.21 0 0 0 10 20.1v3.23h1.78v-2.66h12.44Z"/>
    <path fill="hsl(198, 99%, 34%)" d="M36.67 28.27a4.14 4.14 0 0 1-4 5.26h-6.28l1.43-1.43a1.2 1.2 0 1 0-1.7-1.7l-4.32 4.32L26.12 39a1.2 1.2 0 1 0 1.7-1.7l-1.43-1.43h6.27a6.54 6.54 0 0 0 5.86-9.5ZM16.85 32H4V4h28v13.33h.16a3.17 3.17 0 0 1 1.84.57V4a2 2 0 0 0-2-2H4a2 2 0 0 0-2 2v28a2 2 0 0 0 2 2h13.83a8.6 8.6 0 0 1-.98-2"/>
    <path fill="hsl(198, 99%, 34%)" d="M33 19.67a1.2 1.2 0 0 0-1.7 1.7l1.43 1.43H25a6.55 6.55 0 0 0-5.3 10.44l1.74-1.74a4.13 4.13 0 0 1-.62-2.14A4.17 4.17 0 0 1 25 25.19h7.76l-1.43 1.43a1.2 1.2 0 1 0 1.7 1.7L37.34 24Z"/>
  </g>
</svg>
