<svg xmlns="http://www.w3.org/2000/svg" viewBox="0 0 40 40"><title>foreach</title><g id="28e293c8-4c0e-4b4d-811a-f22572ee7272" data-name="icon"><rect x="6.44" y="25.11" width="9.78" height="4.44" rx="1" ry="1" fill="var(--cds-alias-utility-light-blue)"></rect><path d="M17.67,13.45l-5.36-2.56a1,1,0,0,1,.05-1.69l5.53-2.88a1,1,0,0,1,.85,0l5.36,2.56A1,1,0,0,1,24,10.54l-5.53,2.88A1,1,0,0,1,17.67,13.45Z" fill="var(--cds-alias-utility-light-blue)"></path><path d="M36.67,28.27a4.14,4.14,0,0,1-4,5.26H26.39l1.43-1.43a1.2,1.2,0,1,0-1.7-1.7L21.8,34.72,26.12,39a1.2,1.2,0,1,0,1.7-1.7l-1.43-1.43h6.27a6.54,6.54,0,0,0,5.86-9.5Z" fill="black"></path><path d="M24.22,20.83c.25,0,.5,0,.76,0h1v-.4a1.35,1.35,0,0,0-1.4-1.51H18.89V14.44H17.11v4.44h-5.9A1.21,1.21,0,0,0,10,20.1v3.23h1.78V20.67H24.22Z" fill="var(--cds-alias-utility-light-blue)"></path><path d="M36.67,28.27a4.14,4.14,0,0,1-4,5.26H26.39l1.43-1.43a1.2,1.2,0,1,0-1.7-1.7L21.8,34.72,26.12,39a1.2,1.2,0,1,0,1.7-1.7l-1.43-1.43h6.27a6.54,6.54,0,0,0,5.86-9.5Z" fill="black"></path><path d="M16.85,32H4V4H32V17.33l.16,0A3.17,3.17,0,0,1,34,17.9V4a2,2,0,0,0-2-2H4A2,2,0,0,0,2,4V32a2,2,0,0,0,2,2H17.83A8.62,8.62,0,0,1,16.85,32Z" fill="black"></path><path d="M33,19.67a1.2,1.2,0,0,0-1.7,1.7l1.43,1.43H25A6.55,6.55,0,0,0,19.7,33.24l1.74-1.74a4.13,4.13,0,0,1-.62-2.14A4.17,4.17,0,0,1,25,25.19h7.76l-1.43,1.43a1.2,1.2,0,1,0,1.7,1.7L37.34,24Z" fill="black"></path></g></svg>