<svg xmlns="http://www.w3.org/2000/svg" viewBox="0 0 40 40">
  <title>http get</title>
  <g id="http-get" data-name="icon">
    <path fill="hsl(198, 10%, 46%)" d="M19.65 35.21a15 15 0 0 1-2.1.16 14.88 14.88 0 0 1-10.43-4.3c.72 0 1.42-.13 2.12-.24a2.88 2.88 0 0 0 3.48 1.47 3 3 0 0 0 2-3.06A23 23 0 0 0 17 28.07c.3.24.61.47.93.7l1.07-1.2-.59-.42a23.28 23.28 0 0 0 8.89-11.88 20.9 20.9 0 0 1 4.87 4l.51.64a15.6 15.6 0 0 1-2.06 7.72h2.26a17.6 17.6 0 0 0 1.8-7.74A17.31 17.31 0 0 0 17.55 2.46 17.31 17.31 0 0 0 .43 19.92a17.31 17.31 0 0 0 17.12 17.46 16.8 16.8 0 0 0 3.72-.43Zm8.79-26a15.54 15.54 0 0 1 4 8.09 22.5 22.5 0 0 0-4.68-3.61 23.5 23.5 0 0 0 .68-4.47Zm-11.3 16.87a22.23 22.23 0 0 1-6.67-11 2.48 2.48 0 0 0 1.17-1.63 2.6 2.6 0 0 0 .05-.54 20.8 20.8 0 0 1 6-.58c.69 0 1.36.11 2 .21a3 3 0 0 0 .13.87 2.87 2.87 0 0 0 5.19.69c.29.13.58.24.86.38a21.63 21.63 0 0 1-8.73 11.6M9.87 6.63a14.73 14.73 0 0 1 17 1.13 22 22 0 0 1-.56 5.15c-.27-.13-.56-.23-.83-.35a3 3 0 0 0-.13-1 2.87 2.87 0 0 0-5.28-.56 22.15 22.15 0 0 0-8.92.41 2.42 2.42 0 0 0-1.39-.9V9.29a24 24 0 0 1 .11-2.66M8.16 7.82v1.45c0 .45 0 1 .05 1.43a2.47 2.47 0 0 0-1.32 1.71 2.6 2.6 0 0 0-.09.59 23 23 0 0 0-3.61 2.17 15.5 15.5 0 0 1 4.97-7.35M5.72 29.51a15.6 15.6 0 0 1-3.28-9.59 16 16 0 0 1 .18-2.26 21.4 21.4 0 0 1 4.73-3.16 2.42 2.42 0 0 0 1.38.88h.18a23.9 23.9 0 0 0 6.79 11.56c-.51.28-1 .53-1.57.77a2.86 2.86 0 0 0-3.22-1.06 3 3 0 0 0-2 2.62 20 20 0 0 1-2.24.23c-.31.02-.67.01-.95.01"/>
    <path fill="hsl(198, 100%, 34%)" d="M38.47 29.66H23.65l4.55-4.87a1.4 1.4 0 1 0-2-1.92l-6.79 7.23a1.4 1.4 0 0 0 0 1.92l6.75 7.23a1.39 1.39 0 0 0 2 .06 1.4 1.4 0 0 0 .06-2l-4.55-4.87h14.8a1.4 1.4 0 0 0 0-2.8Z"/>
  </g>
</svg>
