<svg xmlns="http://www.w3.org/2000/svg" viewBox="0 0 40 40"><title>http post</title><g id="09ceddd8-31a4-4656-a23d-1b282a5ddf33" data-name="icon"><path d="M22.62,34.46a14.61,14.61,0,0,1-5.07.91,14.88,14.88,0,0,1-10.43-4.3Q8.2,31,9.24,30.84a2.88,2.88,0,0,0,3.47,1.45,3,3,0,0,0,2-3.06A22.43,22.43,0,0,0,17,28.07l.62.46a3.37,3.37,0,0,1,1.64-.81c-.27-.19-.54-.37-.81-.57A23.28,23.28,0,0,0,27.3,15.27a20.9,20.9,0,0,1,4.87,4l.51.64c0,.28,0,.56,0,.84a3.38,3.38,0,0,1,1,.73l.84.89a17.76,17.76,0,0,0,.19-2.49A17.31,17.31,0,0,0,17.55,2.46,17.31,17.31,0,0,0,.43,19.92,17.31,17.31,0,0,0,17.55,37.38,16.78,16.78,0,0,0,27,34.46ZM28.44,9.22a15.54,15.54,0,0,1,4,8.09,22.51,22.51,0,0,0-4.68-3.61A23.49,23.49,0,0,0,28.44,9.22ZM17.14,26.08a22.2,22.2,0,0,1-6.67-11,2.48,2.48,0,0,0,1.16-1.63,2.55,2.55,0,0,0,0-.56,21,21,0,0,1,6-.56c.68,0,1.36.1,2,.2a3,3,0,0,0,.13.88,2.87,2.87,0,0,0,5.2.68c.29.13.57.25.86.39A21.63,21.63,0,0,1,17.14,26.08ZM9.87,6.63a14.73,14.73,0,0,1,17,1.13,22,22,0,0,1-.56,5.15c-.27-.13-.56-.23-.83-.35a3,3,0,0,0-.13-1A2.87,2.87,0,0,0,20.07,11a22.45,22.45,0,0,0-8.93.39,2.42,2.42,0,0,0-1.37-.88c0-.41-.06-.81-.06-1.23A23.63,23.63,0,0,1,9.87,6.63ZM8.16,7.82c0,.48,0,1,0,1.45s0,1,.06,1.42a2.47,2.47,0,0,0-1.33,1.71,2.55,2.55,0,0,0-.05.53,22.93,22.93,0,0,0-3.61,2.18A15.5,15.5,0,0,1,8.16,7.82ZM5.72,29.51a15.59,15.59,0,0,1-3.28-9.59,15.78,15.78,0,0,1,.18-2.26,21.54,21.54,0,0,1,4.71-3.18,2.42,2.42,0,0,0,1.4.91l.17,0a23.87,23.87,0,0,0,6.8,11.54q-.76.42-1.56.78a2.86,2.86,0,0,0-3.23-1.06,3,3,0,0,0-2,2.62,20.87,20.87,0,0,1-2.24.23C6.36,29.52,6,29.51,5.72,29.51Z" fill="var(--cds-alias-utility-gray)"></path><path d="M19.86,29.66H34.69l-4.55-4.87a1.4,1.4,0,1,1,2-1.92l6.75,7.23a1.4,1.4,0,0,1,0,1.92l-6.75,7.23a1.39,1.39,0,0,1-2,.06,1.4,1.4,0,0,1-.06-2l4.55-4.87H19.86a1.4,1.4,0,0,1,0-2.8Z" fill="var(--cds-alias-utility-red)"></path></g></svg>