<svg xmlns="http://www.w3.org/2000/svg" viewBox="0 0 40 40"><title>http get</title><g id="066f81a2-00dd-4c10-ac9e-d5d857288d24" data-name="icon"><path d="M19.65,35.21a14.64,14.64,0,0,1-2.1.16,14.88,14.88,0,0,1-10.43-4.3c.72,0,1.42-.13,2.12-.24a2.88,2.88,0,0,0,3.48,1.47,3,3,0,0,0,2-3.06A22.46,22.46,0,0,0,17,28.07c.3.24.61.47.93.7l0,0L19,27.57l-.59-.42A23.28,23.28,0,0,0,27.3,15.27a20.9,20.9,0,0,1,4.87,4l.51.64a15.58,15.58,0,0,1-2.06,7.72h2.26a17.61,17.61,0,0,0,1.8-7.74A17.31,17.31,0,0,0,17.55,2.46,17.31,17.31,0,0,0,.43,19.92,17.31,17.31,0,0,0,17.55,37.38a16.76,16.76,0,0,0,3.72-.43Zm8.79-26a15.54,15.54,0,0,1,4,8.09,22.51,22.51,0,0,0-4.68-3.61A23.49,23.49,0,0,0,28.44,9.22ZM17.14,26.08a22.23,22.23,0,0,1-6.67-11,2.48,2.48,0,0,0,1.17-1.63,2.55,2.55,0,0,0,.05-.54,20.76,20.76,0,0,1,6-.58c.69,0,1.36.11,2,.21a3,3,0,0,0,.13.87,2.87,2.87,0,0,0,5.19.69c.29.13.58.24.86.38A21.63,21.63,0,0,1,17.14,26.08ZM9.87,6.63a14.73,14.73,0,0,1,17,1.13,22,22,0,0,1-.56,5.15c-.27-.13-.56-.23-.83-.35a3,3,0,0,0-.13-1A2.87,2.87,0,0,0,20.07,11a22.15,22.15,0,0,0-8.92.41,2.42,2.42,0,0,0-1.39-.9c0-.4,0-.81,0-1.22A23.63,23.63,0,0,1,9.87,6.63ZM8.16,7.82c0,.48,0,1,0,1.45s0,1,.05,1.43a2.47,2.47,0,0,0-1.32,1.71A2.55,2.55,0,0,0,6.8,13a22.88,22.88,0,0,0-3.61,2.17A15.5,15.5,0,0,1,8.16,7.82ZM5.72,29.51a15.59,15.59,0,0,1-3.28-9.59,15.78,15.78,0,0,1,.18-2.26A21.4,21.4,0,0,1,7.35,14.5a2.42,2.42,0,0,0,1.38.88l.18,0A23.88,23.88,0,0,0,15.7,26.94c-.51.28-1,.53-1.57.77a2.86,2.86,0,0,0-3.22-1.06,3,3,0,0,0-2,2.62,20.35,20.35,0,0,1-2.24.23C6.36,29.52,6,29.51,5.72,29.51Z" fill="var(--cds-alias-utility-gray)"></path><path d="M38.47,29.66H23.65l4.55-4.87a1.4,1.4,0,1,0-2-1.92L19.41,30.1a1.4,1.4,0,0,0,0,1.92l6.75,7.23a1.39,1.39,0,0,0,2,.06,1.4,1.4,0,0,0,.06-2l-4.55-4.87H38.47a1.4,1.4,0,0,0,0-2.8Z" fill="var(--cds-alias-utility-blue)"></path></g></svg>