<svg xmlns="http://www.w3.org/2000/svg" viewBox="0 0 40 40">
  <title>http post</title>
  <g id="http-post" data-name="icon">
    <path fill="hsl(198, 10%, 46%)" d="M22.62 34.46a14.6 14.6 0 0 1-5.07.91 14.88 14.88 0 0 1-10.43-4.3q1.08-.07 2.12-.23a2.88 2.88 0 0 0 3.47 1.45 3 3 0 0 0 2-3.06A22 22 0 0 0 17 28.07l.62.46a3.37 3.37 0 0 1 1.64-.81c-.27-.19-.54-.37-.81-.57a23.28 23.28 0 0 0 8.85-11.88 20.9 20.9 0 0 1 4.87 4l.51.64v.84a3.4 3.4 0 0 1 1 .73l.84.89a18 18 0 0 0 .19-2.49A17.31 17.31 0 0 0 17.55 2.46 17.31 17.31 0 0 0 .43 19.92a17.31 17.31 0 0 0 17.12 17.46A16.8 16.8 0 0 0 27 34.46Zm5.82-25.24a15.54 15.54 0 0 1 4 8.09 22.5 22.5 0 0 0-4.68-3.61 23.5 23.5 0 0 0 .68-4.48m-11.3 16.86a22.2 22.2 0 0 1-6.67-11 2.48 2.48 0 0 0 1.16-1.63 2.6 2.6 0 0 0 0-.56 21 21 0 0 1 6-.56c.68 0 1.36.1 2 .2a3 3 0 0 0 .13.88 2.87 2.87 0 0 0 5.2.68c.29.13.57.25.86.39a21.63 21.63 0 0 1-8.68 11.6M9.87 6.63a14.73 14.73 0 0 1 17 1.13 22 22 0 0 1-.56 5.15c-.27-.13-.56-.23-.83-.35a3 3 0 0 0-.13-1 2.87 2.87 0 0 0-5.28-.56 22.45 22.45 0 0 0-8.93.39 2.42 2.42 0 0 0-1.37-.88c0-.41-.06-.81-.06-1.23a24 24 0 0 1 .16-2.65M8.16 7.82v1.45c0 .45 0 1 .06 1.42a2.47 2.47 0 0 0-1.33 1.71 2.6 2.6 0 0 0-.05.53 23 23 0 0 0-3.61 2.18 15.5 15.5 0 0 1 4.93-7.29M5.72 29.51a15.6 15.6 0 0 1-3.28-9.59 16 16 0 0 1 .18-2.26 21.5 21.5 0 0 1 4.71-3.18 2.42 2.42 0 0 0 1.4.91h.17a23.87 23.87 0 0 0 6.8 11.54q-.76.42-1.56.78a2.86 2.86 0 0 0-3.23-1.06 3 3 0 0 0-2 2.62 21 21 0 0 1-2.24.23c-.31.02-.67.01-.95.01"/>
    <path fill="hsl(9, 100%, 44%)" d="M19.86 29.66h14.83l-4.55-4.87a1.4 1.4 0 1 1 2-1.92l6.75 7.23a1.4 1.4 0 0 1 0 1.92l-6.75 7.23a1.39 1.39 0 0 1-2 .06 1.4 1.4 0 0 1-.06-2l4.55-4.87H19.86a1.4 1.4 0 0 1 0-2.8Z"/>
  </g>
</svg>
