<svg xmlns="http://www.w3.org/2000/svg" viewBox="0 0 40 40">
  <title>increase counter</title>
  <g id="increase-counter" data-name="icon">
    <path fill="hsl(200, 10%, 47%)" d="M20 2.06A18 18 0 0 0 4.34 11.2h2.34a15.95 15.95 0 1 1 .43 18.2H4.7A18 18 0 1 0 20 2.06"/>
    <path fill="hsl(93, 80%, 28%)" d="M22.23 10.74a1.2 1.2 0 0 0-1.15-.09l-3.87 1.75a1.2 1.2 0 0 0 1 2.19l2.18-1V28a1.2 1.2 0 0 0 2.4 0V11.75a1.2 1.2 0 0 0-.56-1.01M13 19.1H9.41v-3.55a1.2 1.2 0 0 0-2.4 0v3.55H3.46a1.2 1.2 0 0 0 0 2.4H7v3.55a1.2 1.2 0 0 0 2.4 0V21.5H13a1.2 1.2 0 0 0 0-2.4"/>
  </g>
</svg>
