<svg xmlns="http://www.w3.org/2000/svg" viewBox="0 0 40 40"><title>increase counter</title><g id="6d387984-97ef-4fce-9cb2-a9bd64e59a89" data-name="icon"><path d="M20,2.06A18,18,0,0,0,4.34,11.2H6.68a15.95,15.95,0,1,1,.43,18.2H4.7A18,18,0,1,0,20,2.06Z" fill="var(--cds-alias-utility-gray)"></path><path d="M22.23,10.74a1.2,1.2,0,0,0-1.15-.09l-3.87,1.75a1.2,1.2,0,0,0,1,2.19l2.18-1V28a1.2,1.2,0,0,0,2.4,0V11.75A1.2,1.2,0,0,0,22.23,10.74Z" fill="var(--cds-alias-utility-green)"></path><path d="M13,19.1H9.41V15.55a1.2,1.2,0,0,0-2.4,0V19.1H3.46a1.2,1.2,0,0,0,0,2.4H7v3.55a1.2,1.2,0,0,0,2.4,0V21.5H13a1.2,1.2,0,0,0,0-2.4Z" fill="var(--cds-alias-utility-green)"></path></g></svg>