<svg viewBox="0 0 36 36" xmlns="http://www.w3.org/2000/svg" aria-hidden="true"><path d="M32,8H4a2,2,0,0,0-2,2V26a2,2,0,0,0,2,2H32a2,2,0,0,0,2-2V10A2,2,0,0,0,32,8Zm0,18H4V10H32Z"></path><rect x="7" y="13" width="2" height="2"></rect><rect x="11" y="13" width="2" height="2"></rect><rect x="15" y="13" width="2" height="2"></rect><rect x="19" y="13" width="2" height="2"></rect><rect x="23" y="13" width="2" height="2"></rect><rect x="27" y="13" width="2" height="2"></rect><rect x="7" y="17" width="2" height="2"></rect><rect x="11" y="17" width="2" height="2"></rect><rect x="15" y="17" width="2" height="2"></rect><rect x="19" y="17" width="2" height="2"></rect><rect x="23" y="17" width="2" height="2"></rect><rect x="27" y="17" width="2" height="2"></rect><rect x="27" y="22" width="1.94" height="2"></rect><rect x="7" y="22" width="2" height="2"></rect><rect x="11.13" y="22" width="13.75" height="2"></rect></svg>