<svg xmlns="http://www.w3.org/2000/svg" xml:space="preserve" id="Layer_1" x="0" y="0" version="1.1" viewBox="0 0 40 40">
  <title>multiple</title>
  <g id="multiple">
    <path fill="hsl(198, 99%, 34%)" d="M36 2H10c-1.1 0-2 .9-2 2v2.1h2V4h26v26h-2v2h2c1.1 0 2-.9 2-2V4c0-1.1-.9-2-2-2"/>
    <path fill="hsl(198, 99%, 34%)" d="M30 8H4c-1.1 0-2 .9-2 2v26c0 1.1.9 2 2 2h26c1.1 0 2-.9 2-2V10c0-1.1-.9-2-2-2m0 28H4V10h26z"/>
    <path fill="hsl(198, 100%, 70%)" d="M11.1 25.8h12v3h1.4v-3.2c0-.6-.5-1.1-1.1-1.1h-5.5v-4.2h-1.4v4.2h-5.6c-.6 0-1.1.5-1.1 1.1v3.2h1.4v-3zM6.6 30h7.6c.6 0 1 .4 1 1v1.8c0 .6-.4 1-1 1H6.6c-.6 0-1-.4-1-1V31c0-.5.4-1 1-1m13.3 0h7.7c.5 0 1 .4 1 1v1.9c0 .5-.4 1-1 1h-7.7c-.5 0-1-.4-1-1V31c.1-.6.5-1 1-1m-8.3-13.4 5.1 2.4c.3.1.5.1.8 0l5.2-2.7c.4-.2.6-.8.4-1.2-.1-.2-.2-.3-.4-.4l-5.1-2.4c-.3-.1-.5-.1-.8 0L11.7 15c-.4.2-.6.8-.4 1.2.1.2.2.3.3.4"/>
  </g>
</svg>
