<svg version="1.1" id="Layer_1" xmlns="http://www.w3.org/2000/svg" xmlns:xlink="http://www.w3.org/1999/xlink" x="0px" y="0px" viewBox="0 0 40 40" style="enable-background:new 0 0 40 40;" xml:space="preserve">
<style type="text/css">
	.st0{fill:#0079ad;}
	.st1{fill:#66d1ff;}
</style>
<title>multiple</title>
<g id="d508a7cd-2c89-494b-8a73-21ca881e04e0">
	<path class="st0" d="M36,2H10C8.9,2,8,2.9,8,4v2.1h2V4h26v26h-2v2h2c1.1,0,2-0.9,2-2V4C38,2.9,37.1,2,36,2z"></path>
	<path class="st0" d="M30,8H4c-1.1,0-2,0.9-2,2v26c0,1.1,0.9,2,2,2h26c1.1,0,2-0.9,2-2V10C32,8.9,31.1,8,30,8z M30,36H4V10h26V36z"></path>
	<path class="st1" d="M11.1,25.8h12v3h1.4v-3.2c0-0.6-0.5-1.1-1.1-1.1h-5.5v-4.2h-1.4v4.2h-5.6c-0.6,0-1.1,0.5-1.1,1.1c0,0,0,0,0,0
		v3.2h1.4V25.8z"></path>
	<path class="st1" d="M6.6,30h7.6c0.6,0,1,0.4,1,1v1.8c0,0.6-0.4,1-1,1H6.6c-0.6,0-1-0.4-1-1V31C5.6,30.5,6,30,6.6,30z"></path>
	<path class="st1" d="M19.9,30h7.7c0.5,0,1,0.4,1,1v1.9c0,0.5-0.4,1-1,1h-7.7c-0.5,0-1-0.4-1-1V31C19,30.4,19.4,30,19.9,30z"></path>
	<path class="st1" d="M11.6,16.6l5.1,2.4c0.3,0.1,0.5,0.1,0.8,0l5.2-2.7c0.4-0.2,0.6-0.8,0.4-1.2c-0.1-0.2-0.2-0.3-0.4-0.4l-5.1-2.4
		c-0.3-0.1-0.5-0.1-0.8,0L11.7,15c-0.4,0.2-0.6,0.8-0.4,1.2C11.4,16.4,11.5,16.5,11.6,16.6z"></path>
</g>
</svg>