<svg xmlns="http://www.w3.org/2000/svg" viewBox="0 0 40 40"><title>workflow schedule</title><g id="c60942e9-6b0e-4226-a991-dd54620ed90a" data-name="icon"><path d="M17.67,13.45l-5.36-2.56a1,1,0,0,1,.05-1.69l5.53-2.88a1,1,0,0,1,.85,0l5.36,2.56A1,1,0,0,1,24,10.54l-5.53,2.88A1,1,0,0,1,17.67,13.45Z" fill="#66d1ff"></path><rect x="6.44" y="25.11" width="9.78" height="4.44" rx="1" ry="1" fill="#66d1ff"></rect><path d="M20,32H4V4H32V22h.14A2.8,2.8,0,0,1,34,19.52V4a2,2,0,0,0-2-2H4A2,2,0,0,0,2,4V32a2,2,0,0,0,2,2H20Z" fill="#0079ad"></path><path d="M24.22,20.83h.09a2.8,2.8,0,0,1,1.48-1.29,1.31,1.31,0,0,0-1.2-.65H18.89V14.44H17.11v4.44h-5.9A1.21,1.21,0,0,0,10,20.1v3.23h1.78V20.67H24.22Z" fill="#66d1ff"></path><path d="M39,24H35.73V22.15a.8.8,0,0,0-1.6,0V24H27.57V22.15a.8.8,0,1,0-1.6,0V24H23a1,1,0,0,0-1,1V39a1,1,0,0,0,1,1H39a1,1,0,0,0,1-1V25A1,1,0,0,0,39,24Zm-3.82,1.13a.71.71,0,1,1-.71.71A.71.71,0,0,1,35.18,25.13Zm-8.33,0a.71.71,0,1,1-.71.71A.71.71,0,0,1,26.84,25.13Zm9,6.46-6,6-3.2-3.2a.5.5,0,0,1,.71-.71l2.5,2.49,5.3-5.3a.5.5,0,0,1,.71.71Zm2.82-2.65H23.36v-1H38.68Z" fill="#0079ad"></path></g></svg>