<svg xmlns="http://www.w3.org/2000/svg" viewBox="0 0 40 40"><title>task</title><g id="b45fcbbd-24cd-4637-96d1-78a9b4c158e2" data-name="icon"><path d="M38,10V5.52A4.52,4.52,0,0,0,33.48,1H13.53A4.53,4.53,0,0,0,9,5.53V29H2v5.53a4.71,4.71,0,0,0,4.86,4.52H7v0H29.47A4.53,4.53,0,0,0,34,34.47V12H32V34.48A2.52,2.52,0,0,1,29.48,37H10.24A4.52,4.52,0,0,0,11,34.48V5.73a2.6,2.6,0,0,1,1.88-2.56A2.51,2.51,0,0,1,16,5.61V10ZM4,34.34v-3.4H9v3.52A2.51,2.51,0,0,1,5.91,36.9,2.59,2.59,0,0,1,4,34.34ZM36,5.51V8H18V5.47A4.37,4.37,0,0,0,17.24,3H33.45A2.52,2.52,0,0,1,36,5.51Z" fill="var(--cds-alias-utility-gray)"></path></g></svg>