<svg xmlns="http://www.w3.org/2000/svg" viewBox="0 0 40 40">
  <title>scripting element</title>
  <g id="scripting-element" data-name="icon">
    <path fill="hsl(200, 10%, 47%)" d="M22.14 40h-4.28a1.76 1.76 0 0 1-1.69-1.26L15 35a16 16 0 0 1-2.1-.86L9.5 36a1.76 1.76 0 0 1-2.09-.31l-3-3a1.77 1.77 0 0 1-.31-2.09l1.8-3.49A16 16 0 0 1 5 25l-3.7-1.13a1.76 1.76 0 0 1-1.26-1.7v-4.31a1.76 1.76 0 0 1 1.26-1.7L5 15a16 16 0 0 1 .9-2.19L4.08 9.46a1.77 1.77 0 0 1 .31-2.09l3-3A1.76 1.76 0 0 1 9.5 4l3.37 1.8a16 16 0 0 1 2.19-.9l1.11-3.67A1.76 1.76 0 0 1 17.86 0h4.27a1.76 1.76 0 0 1 1.69 1.26l1.12 3.69a16 16 0 0 1 2.17.9L30.5 4a1.76 1.76 0 0 1 2.09.31l3 3a1.77 1.77 0 0 1 .31 2.09l-1.8 3.49A16 16 0 0 1 35 15l3.72 1.13a1.76 1.76 0 0 1 1.26 1.7v4.29a1.76 1.76 0 0 1-1.26 1.7L34.94 25a16 16 0 0 1-.86 2.09l1.85 3.47a1.77 1.77 0 0 1-.31 2.09l-3 3a1.76 1.76 0 0 1-2.12.35L27 34.11a16 16 0 0 1-2 .89l-1.14 3.77A1.76 1.76 0 0 1 22.14 40M18 38h4l1.4-4.63.52-.15a13.7 13.7 0 0 0 2.68-1.11l.48-.26 4.25 2.28 2.78-2.79-2.27-4.26.26-.47a13.8 13.8 0 0 0 1.12-2.7l.15-.52 4.6-1.4V18l-4.59-1.4-.15-.52a13.8 13.8 0 0 0-1.12-2.75l-.26-.47 2.25-4.22-2.8-2.76-4.19 2.24-.48-.27a13.7 13.7 0 0 0-2.77-1.15l-.52-.15L22 2h-4l-1.34 4.54-.52.15a13.7 13.7 0 0 0-2.8 1.15l-.48.26L8.7 5.88 5.92 8.67l2.23 4.18-.26.47a13.8 13.8 0 0 0-1.14 2.8l-.15.52L2.06 18v4l4.56 1.39.15.52a13.7 13.7 0 0 0 1.14 2.75l.26.47-2.25 4.2 2.78 2.79 4.23-2.27.47.26a13.7 13.7 0 0 0 2.71 1.11l.52.15Zm20.1-19.93"/>
    <path fill="hsl(200, 10%, 47%)" d="m27.24 19.13-10.76-6A1 1 0 0 0 15 14v12a1 1 0 0 0 1.48.87l10.76-6a1 1 0 0 0 0-1.74"/>
  </g>
</svg>
