<svg xmlns="http://www.w3.org/2000/svg" viewBox="0 0 40 40">
  <title>send custom event</title>
  <path id="send-custom-event" fill="hsl(9, 100%, 44%)" d="M7 40a1 1 0 0 1-1-1V1a1 1 0 0 1 2 0v38a1 1 0 0 1-1 1M33.41 2.92a1 1 0 0 0-1.08.16 9.6 9.6 0 0 1-6 2A11.25 11.25 0 0 1 21 3.55a15.3 15.3 0 0 0-7.3-1.89 9.5 9.5 0 0 0-3.7.82v2.23a8.1 8.1 0 0 1 3.73-1 13.25 13.25 0 0 1 6.43 1.69 13.2 13.2 0 0 0 6.23 1.69A12.1 12.1 0 0 0 32 5.69V21.3a9.9 9.9 0 0 1-5.61 1.7A11.26 11.26 0 0 1 21 21.5a15.3 15.3 0 0 0-7.31-1.89 9.5 9.5 0 0 0-3.73.83v2.23a8.1 8.1 0 0 1 3.73-1 13.24 13.24 0 0 1 6.43 1.69A13.2 13.2 0 0 0 26.37 25a11.58 11.58 0 0 0 7.28-2.46 1 1 0 0 0 .34-.76V3.84a1 1 0 0 0-.58-.92" data-name="icon"/>
</svg>
