<svg xmlns="http://www.w3.org/2000/svg" viewBox="0 0 40 40"><title>server log</title><g id="8a59832a-ca3c-463b-b4e8-3585013a3eba" data-name="icon"><path d="M35.42,10.16,25.76.59A2,2,0,0,0,24.32,0H6.14A2.21,2.21,0,0,0,4,2.27V37.73A2.21,2.21,0,0,0,6.14,40H33.86A2.21,2.21,0,0,0,36,37.73V11.56A2,2,0,0,0,35.42,10.16ZM25,2.63l8.43,8.31H25Zm9,35.09c0,.18-.1.27-.15.27H6.15S6,37.91,6,37.73V2.27c0-.18.1-.27.15-.27H23v9.13A1.78,1.78,0,0,0,24.78,13H34Z" fill="var(--cds-alias-utility-gray)"></path><circle cx="20" cy="22.5" r="8.76" fill="var(--cds-alias-status-info)"></circle><circle cx="20" cy="17.34" r="1.09" fill="var(--cds-global-color-white)"></circle><path d="M21.67,27.06h-1v-6.9H18.83a.65.65,0,1,0,0,1.31h.48v5.59h-1a.65.65,0,1,0,0,1.31h3.34a.65.65,0,0,0,0-1.31Z" fill="var(--cds-global-color-white)"></path></g></svg>