<svg xmlns="http://www.w3.org/2000/svg" viewBox="0 0 40 40">
  <title>server warning</title>
  <g id="server-warning" data-name="icon">
    <path fill="hsl(39, 100%, 59%)" d="m18.7 14.35-8.3 14.32a1.5 1.5 0 0 0 1.3 2.25h16.6a1.5 1.5 0 0 0 1.3-2.25l-8.3-14.32a1.5 1.5 0 0 0-2.6 0"/>
    <path fill="hsl(200, 10%, 47%)" d="M35.42 10.16 25.76.59A2 2 0 0 0 24.32 0H6.14A2.21 2.21 0 0 0 4 2.27v35.46A2.21 2.21 0 0 0 6.14 40h27.72A2.21 2.21 0 0 0 36 37.73V11.56a2 2 0 0 0-.58-1.4M25 2.63l8.43 8.31H25Zm9 35.09c0 .18-.1.27-.15.27H6.15S6 37.91 6 37.73V2.27c0-.18.1-.27.15-.27H23v9.13A1.78 1.78 0 0 0 24.78 13H34Z"/>
    <path fill="var(--cds-global-color-black)" d="M20 25.23a1 1 0 0 1-1-1v-6a1 1 0 0 1 2 0v6a1 1 0 0 1-1 1"/>
    <circle cx="20" cy="28" r="1.26" fill="hsl(0, 0%, 0%)"/>
  </g>
</svg>
