<svg xmlns="http://www.w3.org/2000/svg" viewBox="0 0 40 40"><title>server warning</title><g id="48ba961c-668f-4d3e-a66f-e8344462420d" data-name="icon"><path d="M18.7,14.35,10.4,28.67a1.5,1.5,0,0,0,1.3,2.25H28.3a1.5,1.5,0,0,0,1.3-2.25L21.3,14.35A1.5,1.5,0,0,0,18.7,14.35Z" fill="var(--cds-alias-status-warning)"></path><path d="M35.42,10.16,25.76.59A2,2,0,0,0,24.32,0H6.14A2.21,2.21,0,0,0,4,2.27V37.73A2.21,2.21,0,0,0,6.14,40H33.86A2.21,2.21,0,0,0,36,37.73V11.56A2,2,0,0,0,35.42,10.16ZM25,2.63l8.43,8.31H25Zm9,35.09c0,.18-.1.27-.15.27H6.15S6,37.91,6,37.73V2.27c0-.18.1-.27.15-.27H23v9.13A1.78,1.78,0,0,0,24.78,13H34Z" fill="var(--cds-alias-utility-gray)"></path><path d="M20,25.23a1,1,0,0,1-1-1v-6a1,1,0,0,1,2,0v6A1,1,0,0,1,20,25.23Z" fill="var(--cds-global-color-black)"></path><ellipse cx="20" cy="28" rx="1.26" ry="1.26" fill="var(--cds-global-color-black)"></ellipse></g></svg>