<svg xmlns="http://www.w3.org/2000/svg" viewBox="0 0 40 40">
  <title>server log</title>
  <g id="server-log" data-name="icon">
    <path fill="hsl(200, 10%, 47%)" d="M35.42 10.16 25.76.59A2 2 0 0 0 24.32 0H6.14A2.21 2.21 0 0 0 4 2.27v35.46A2.21 2.21 0 0 0 6.14 40h27.72A2.21 2.21 0 0 0 36 37.73V11.56a2 2 0 0 0-.58-1.4M25 2.63l8.43 8.31H25Zm9 35.09c0 .18-.1.27-.15.27H6.15S6 37.91 6 37.73V2.27c0-.18.1-.27.15-.27H23v9.13A1.78 1.78 0 0 0 24.78 13H34Z"/>
    <circle cx="20" cy="22.5" r="8.76" fill="hsl(198, 100%, 34%)"/>
    <circle cx="20" cy="17.34" r="1.09" fill="hsl(0, 0%, 100%)"/>
    <path fill="hsl(0, 0%, 100%)" d="M21.67 27.06h-1v-6.9h-1.84a.65.65 0 1 0 0 1.31h.48v5.59h-1a.65.65 0 1 0 0 1.31h3.34a.65.65 0 0 0 0-1.31Z"/>
  </g>
</svg>
