<svg xmlns="http://www.w3.org/2000/svg" viewBox="0 0 40 40">
  <title>server error</title>
  <g id="server-error" data-name="icon">
    <path fill="hsl(200, 10%, 47%)" d="M35.42 10.16 25.76.59A2 2 0 0 0 24.32 0H6.14A2.21 2.21 0 0 0 4 2.27v35.46A2.21 2.21 0 0 0 6.14 40h27.72A2.21 2.21 0 0 0 36 37.73V11.56a2 2 0 0 0-.58-1.4M25 2.63l8.43 8.31H25Zm9 35.09c0 .18-.1.27-.15.27H6.15S6 37.91 6 37.73V2.27c0-.18.1-.27.15-.27H23v9.13A1.78 1.78 0 0 0 24.78 13H34Z"/>
    <path fill="hsl(9, 100%, 44%)" d="M20 13.74a8.76 8.76 0 1 0 8.76 8.76A8.76 8.76 0 0 0 20 13.74m4.43 11.71A1 1 0 1 1 23 26.87l-3-3-3 3a1 1 0 0 1-1.41-1.41l3-3-3-3A1 1 0 0 1 17 18l3 3 3-3a1 1 0 0 1 1.41 1.41l-3 3Z"/>
  </g>
</svg>
