<svg xmlns="http://www.w3.org/2000/svg" viewBox="0 0 40 40">
  <title>sleep</title>
  <path id="sleep" fill="hsl(200, 10%, 47%)" d="M33.93 36H30v-6.8a8.3 8.3 0 0 0-3.34-6.63L25 21.34a8.2 8.2 0 0 0-1.61-.93v-.21a8.2 8.2 0 0 0 1.61-.93L26.66 18A8.3 8.3 0 0 0 30 11.42V4h3.93a1 1 0 0 0 0-2H6.07a1 1 0 1 0 0 2H10v7.41A8.3 8.3 0 0 0 13.34 18L15 19.27a8 8 0 0 0 1.34.8v.48a8 8 0 0 0-1.34.8l-1.65 1.22A8.3 8.3 0 0 0 10 29.19V36H6.07a1 1 0 1 0 0 2h27.86a1 1 0 0 0 0-2M28 36H12v-6.8a6.29 6.29 0 0 1 2.53-5l1.65-1.22a6.3 6.3 0 0 1 1.51-.81 1 1 0 0 0 .64-.93V19.4a1 1 0 0 0-.64-.93 6.3 6.3 0 0 1-1.51-.81l-1.65-1.22a6.29 6.29 0 0 1-2.53-5V4h16v7.41a6.29 6.29 0 0 1-2.53 5l-1.65 1.22a6.4 6.4 0 0 1-1.74.91 1 1 0 0 0-.68.95v1.58a1 1 0 0 0 .68.95 6.4 6.4 0 0 1 1.74.91l1.65 1.22a6.29 6.29 0 0 1 2.53 5Z" data-name="icon"/>
</svg>
