<svg xmlns="http://www.w3.org/2000/svg" viewBox="0 0 40 40"><title>switch</title><g id="d368da99-c279-47d1-a4de-3f0ea1621c29" data-name="icon"><path d="M33.4,14.61A1,1,0,1,0,32,16l3,3H15.46a7.08,7.08,0,0,0-.29-1.24L28.57,4.41V8.62a1,1,0,0,0,2,0V1H22.92a1,1,0,0,0,0,2h4.22L14.22,15.88a7.16,7.16,0,1,0,0,8.24L27.15,37H22.92a1,1,0,0,0,0,2h7.64V31.38a1,1,0,0,0-2,0v4.21L15.18,22.24A7.08,7.08,0,0,0,15.46,21H35l-3,3a1,1,0,1,0,1.41,1.42L38.81,20Zm-25,10.55A5.16,5.16,0,1,1,13.54,20,5.17,5.17,0,0,1,8.36,25.16Z" fill="var(--cds-alias-utility-gray)"></path></g></svg>