<svg xmlns="http://www.w3.org/2000/svg" viewBox="0 0 36 36">
  <title>system-error</title>
  <g id="System-error" fill="none" fill-rule="evenodd" stroke="none" stroke-width="1">
    <g id="window" fill-rule="nonzero" transform="translate(2 3)">
      <path id="Rectangle-path" fill="hsl(198, 10%, 46%)" d="M3 3h2v2H3zm4 0h2v2H7zm4 0h2v2h-2z"/>
      <path id="Shape" fill="hsl(198, 10%, 46%)" d="M30 0H2C.895 0 0 .96 0 2.143v25.714C0 29.041.895 30 2 30h28c1.105 0 2-.96 2-2.143V2.143C32 .959 31.105 0 30 0M2 2h28v5H2zm0 26V8.8h28V28z"/>
      <path id="Shape" fill="hsl(9, 100%, 44%)" d="M16 11a7.5 7.5 0 1 0 0 15 7.5 7.5 0 0 0 0-15m3.793 10.026a.863.863 0 1 1-1.225 1.215L16 19.673l-2.568 2.568a.856.856 0 0 1-1.208-1.207l2.569-2.568-2.569-2.569a.869.869 0 0 1 1.208-1.25L16 17.216l2.568-2.569a.856.856 0 0 1 1.208 1.207l-2.569 2.569z"/>
    </g>
    <path id="Rectangle" d="M0 0h36v36H0z"/>
  </g>
</svg>
