<svg xmlns="http://www.w3.org/2000/svg" viewBox="0 0 36 36">
  <title>system-log</title>
  <g id="System-log" fill="none" fill-rule="evenodd" stroke="none" stroke-width="1">
    <g id="window" fill-rule="nonzero" transform="translate(2 3)">
      <path id="Rectangle-path" fill="hsl(198, 10%, 46%)" d="M3 3h2v2H3zm4 0h2v2H7zm4 0h2v2h-2z"/>
      <path id="Shape" fill="hsl(198, 10%, 46%)" d="M30 0H2C.895 0 0 .96 0 2.143v25.714C0 29.041.895 30 2 30h28c1.105 0 2-.96 2-2.143V2.143C32 .959 31.105 0 30 0M2 2h28v5H2zm0 26V8.8h28V28z"/>
      <g id="log" transform="translate(8.5 11)">
        <circle id="Oval" cx="7.3" cy="7.3" r="7.3" fill="hsl(198, 100%, 34%)"/>
        <circle id="Oval" cx="7.085" cy="2.673" r="1" fill="hsl(0, 0%, 100%)"/>
        <path id="Shape" fill="hsl(0, 0%, 100%)" d="M8.64 11.044h-.833v-5.75H6.273a.546.546 0 1 0 0 1.092h.4v4.658H5.84a.546.546 0 0 0-.546.546c0 .301.244.546.546.646l2.783-.1a.546.546 0 1 0 0-1.092z"/>
      </g>
    </g>
    <path id="Rectangle" d="M0 0h36v36H0z"/>
  </g>
</svg>
