<svg xmlns="http://www.w3.org/2000/svg" viewBox="0 0 36 36">
  <title>system-warning</title>
  <g id="System-warning" fill="none" fill-rule="evenodd" stroke="none" stroke-width="1">
    <g id="window" fill-rule="nonzero" transform="translate(2 3)">
      <path id="Rectangle-path" fill="hsl(198, 10%, 46%)" d="M3 3h2v2H3zm4 0h2v2H7zm4 0h2v2h-2z"/>
      <path id="Shape" fill="hsl(198, 10%, 46%)" d="M30 0H2C.895 0 0 .96 0 2.143v25.714C0 29.041.895 30 2 30h28c1.105 0 2-.96 2-2.143V2.143C32 .959 31.105 0 30 0M2 2h28v5H2zm0 26V8.8h28V28z"/>
      <g id="warning" transform="translate(7 11)">
        <path id="Shape" fill="hsl(40, 100%, 59%)" d="M7.676.65.353 13.053a1.28 1.28 0 0 0 0 1.299c.237.402.674.65 1.147.649h14.647c.473 0 .91-.247 1.147-.65a1.28 1.28 0 0 0 0-1.298L9.971.65A1.33 1.33 0 0 0 8.824 0a1.33 1.33 0 0 0-1.148.65"/>
        <path id="Shape" fill="hsl(0, 0%, 0%)" d="M8.824 9.909a.88.88 0 0 1-.883-.883V3.732a.882.882 0 0 1 1.765 0v5.294a.88.88 0 0 1-.882.883"/>
        <circle id="Oval" cx="8.824" cy="12.353" r="1.112" fill="hsl(0, 0%, 0%)"/>
      </g>
    </g>
    <path id="Rectangle" d="M0 0h36v36H0z"/>
  </g>
</svg>
