<svg xmlns="http://www.w3.org/2000/svg" viewBox="0 0 40 40"><title>exception</title><g id="5f014979-6bf1-4a0e-8445-540dc0c35f41" data-name="icon"><path d="M20,25.23A1.21,1.21,0,0,1,18.79,24V9.66a1.2,1.2,0,1,1,2.4,0V24A1.21,1.21,0,0,1,20,25.23Z" fill="var(--cds-alias-utility-red)"></path><circle cx="20" cy="29.97" r="1.6" fill="var(--cds-alias-utility-red)"></circle><path d="M20,40A20,20,0,1,1,40,20,20,20,0,0,1,20,40ZM20,2A18,18,0,1,0,38,20,18,18,0,0,0,20,2Z" fill="var(--cds-alias-utility-red)"></path></g></svg>