<svg xmlns="http://www.w3.org/2000/svg" viewBox="0 0 40 40"><title>input</title><g id="e64c3909-510e-4ccf-b30b-11d48e753078" data-name="icon"><path d="M20,17.56a8.84,8.84,0,0,1-8.88-8.78,8.88,8.88,0,0,1,17.75,0A8.84,8.84,0,0,1,20,17.56ZM20,2a6.84,6.84,0,0,0-6.88,6.78,6.88,6.88,0,0,0,13.75,0A6.84,6.84,0,0,0,20,2Z" fill="var(--cds-alias-utility-blue)"></path><path d="M34.71,40H5.27A2.27,2.27,0,0,1,3,37.73V28.9a1,1,0,0,1,.21-.61C3.44,28,9,21.07,20,21.07s16.52,6.87,16.75,7.16a1,1,0,0,1,.21.61v8.88A2.29,2.29,0,0,1,34.71,40ZM5,29.26v8.45a.29.29,0,0,0,.29.29H34.73a.27.27,0,0,0,.27-.27V29.2a20.16,20.16,0,0,0-15-6.14A20.27,20.27,0,0,0,5,29.26Z" fill="var(--cds-alias-utility-blue)"></path></g></svg>