<svg xmlns="http://www.w3.org/2000/svg" viewBox="0 0 40 40"><title>wait custom event</title><g id="4c0b9852-e6d6-48b0-87d8-b1a9e4cc18c0" data-name="icon"><path d="M20,35H7a1,1,0,0,0,.05-.27V27a4.74,4.74,0,0,1,2.24-3.84,17.15,17.15,0,0,1,3.11-1.54,1,1,0,0,0,.64-.93V19.22a1,1,0,0,0-.64-.93,17.16,17.16,0,0,1-3.11-1.54,4.74,4.74,0,0,1-2.24-3.84V5s0,0,0,0H20.92s0,0,0,0v7.89a4.74,4.74,0,0,1-2.24,3.84,17.16,17.16,0,0,1-3.11,1.54,1,1,0,0,0-.64.93V20.7a1,1,0,0,0,.64.93,17.15,17.15,0,0,1,3.11,1.54A5,5,0,0,1,20,24.41v-3l-.16-.11a18.25,18.25,0,0,0-2.67-1.39,18.22,18.22,0,0,0,2.67-1.39,6.5,6.5,0,0,0,3.07-5.37V5h1.67a1,1,0,1,0,0-2H3.42a1,1,0,0,0,0,2H5.08v8.11a6.5,6.5,0,0,0,3.07,5.37,18.22,18.22,0,0,0,2.67,1.39,18.25,18.25,0,0,0-2.67,1.39,6.5,6.5,0,0,0-3.07,5.37v8.09a1,1,0,0,0,.05.27H3.33a1,1,0,0,0,0,2H20Z" fill="#6a7a81"></path><path d="M33.15,21.75c-3.09,0-4-2-7.6-2A4.81,4.81,0,0,0,24,20V19.4a1,1,0,1,0-2,0V39a1,1,0,0,0,2,0V30.79a4.79,4.79,0,0,1,1.55-.28c3.63,0,4.51,2,7.6,2a6.55,6.55,0,0,0,3.78-1.17.49.49,0,0,0,.2-.4V21.36a.5.5,0,0,0-.75-.43A6.67,6.67,0,0,1,33.15,21.75Z" fill="#e02200"></path></g></svg>