<svg version="1.1" id="Layer_1" xmlns="http://www.w3.org/2000/svg" xmlns:xlink="http://www.w3.org/1999/xlink" x="0px" y="0px" viewBox="0 0 40 40" style="enable-background:new 0 0 40 40;" xml:space="preserve">
<style type="text/css">
	.st0{fill:#6a7a81;}
	.st1{fill:green;}
</style>
<title>wait until date</title>
<g id="c94b9719-d73c-4e1c-bfa2-900cda876d5b">
	<path class="st0" d="M20,35H7c0-0.1,0-0.2,0.1-0.3V27c0.1-1.6,0.9-3,2.2-3.8c1-0.6,2-1.1,3.1-1.5c0.4-0.1,0.6-0.5,0.6-0.9v-1.5
		c0-0.4-0.3-0.8-0.6-0.9c-1.1-0.4-2.1-0.9-3.1-1.5c-1.3-0.8-2.2-2.3-2.2-3.8V5l0,0h13.9l0,0v7.9c-0.1,1.6-0.9,3-2.2,3.8
		c-1,0.6-2,1.1-3.1,1.5c-0.4,0.1-0.6,0.5-0.6,0.9v1.5c0,0.4,0.3,0.8,0.6,0.9c1.1,0.4,2.1,0.9,3.1,1.5c0.5,0.3,1,0.8,1.4,1.3
		c0.1-0.8,0.6-1.5,1.2-2c-0.4-0.5-0.9-0.9-1.5-1.3c-0.9-0.5-1.7-1-2.7-1.4c0.9-0.4,1.8-0.9,2.7-1.4c1.9-1.2,3-3.2,3.1-5.4V5h1.7
		c0.6,0,1-0.4,1-1s-0.4-1-1-1H3.4c-0.6,0-1,0.4-1,1s0.4,1,1,1h1.7v8.1c0.1,2.2,1.2,4.2,3.1,5.4c0.9,0.5,1.7,1,2.7,1.4
		c-0.9,0.4-1.8,0.9-2.7,1.4c-1.9,1.2-3,3.2-3.1,5.4v8.1c0,0.1,0,0.2,0.1,0.3H3.3c-0.6,0-1,0.4-1,1s0.4,1,1,1H20V35z"></path>
	<path class="st1" d="M39,24h-3.3v-1.9c0-0.4-0.4-0.8-0.8-0.8c-0.4,0-0.8,0.4-0.8,0.8V24h-6.6v-1.9c0-0.4-0.4-0.8-0.8-0.8
		c-0.4,0-0.8,0.4-0.8,0.8l0,0V24h-3c-0.6,0-1,0.4-1,1v14c0,0.6,0.4,1,1,1h16c0.6,0,1-0.4,1-1V25C40,24.4,39.6,24,39,24z M35.2,25.1
		c0.4,0,0.7,0.3,0.7,0.7c0,0.4-0.3,0.7-0.7,0.7c-0.4,0-0.7-0.3-0.7-0.7v0C34.5,25.4,34.8,25.1,35.2,25.1z M26.9,25.1
		c0.4,0,0.7,0.3,0.7,0.7s-0.3,0.7-0.7,0.7s-0.7-0.3-0.7-0.7v0C26.1,25.5,26.5,25.1,26.9,25.1L26.9,25.1z M35.8,31.6l-6,6l-3.2-3.2
		c-0.2-0.2-0.2-0.5,0-0.7s0.5-0.2,0.7,0l2.5,2.5l5.3-5.3c0.2-0.2,0.5-0.2,0.7,0S36.1,31.4,35.8,31.6L35.8,31.6z M38.7,28.9H23.4v-1
		h15.3L38.7,28.9z"></path>
</g>
</svg>