<svg xmlns="http://www.w3.org/2000/svg" viewBox="0 0 40 40">
  <title>wait until date</title>
  <g id="wait-until-date" data-name="icon">
    <path fill="hsl(200, 10%, 47%)" d="M20 35H7a1 1 0 0 0 .05-.27V27a4.74 4.74 0 0 1 2.24-3.84 17 17 0 0 1 3.11-1.54 1 1 0 0 0 .64-.93v-1.47a1 1 0 0 0-.64-.93 17 17 0 0 1-3.11-1.54 4.74 4.74 0 0 1-2.24-3.84V5h13.87v7.89a4.74 4.74 0 0 1-2.24 3.84 17 17 0 0 1-3.11 1.54 1 1 0 0 0-.64.93v1.5a1 1 0 0 0 .64.93 17 17 0 0 1 3.11 1.54 5 5 0 0 1 1.38 1.32 3 3 0 0 1 1.25-2 7 7 0 0 0-1.46-1.26 18 18 0 0 0-2.67-1.39 18 18 0 0 0 2.67-1.39 6.5 6.5 0 0 0 3.07-5.37V5h1.67a1 1 0 1 0 0-2H3.42a1 1 0 0 0 0 2h1.66v8.11a6.5 6.5 0 0 0 3.07 5.37 18 18 0 0 0 2.67 1.39 18 18 0 0 0-2.67 1.39 6.5 6.5 0 0 0-3.07 5.37v8.09a1 1 0 0 0 .05.27h-1.8a1 1 0 0 0 0 2H20Z"/>
    <path fill="hsl(198, 99%, 34%)" d="M39 24h-3.27v-1.85a.8.8 0 0 0-1.6 0V24h-6.56v-1.85a.8.8 0 0 0-1.6 0V24H23a1 1 0 0 0-1 1v14a1 1 0 0 0 1 1h16a1 1 0 0 0 1-1V25a1 1 0 0 0-1-1m-3.82 1.13a.71.71 0 1 1-.71.71.71.71 0 0 1 .71-.71m-8.33 0a.71.71 0 1 1-.71.71.71.71 0 0 1 .7-.71Zm9 6.46-6 6-3.2-3.2a.5.5 0 0 1 .71-.71l2.5 2.49 5.3-5.3a.5.5 0 0 1 .71.71Zm2.82-2.65H23.36v-1h15.32Z"/>
  </g>
</svg>
