<svg xmlns="http://www.w3.org/2000/svg" viewBox="0 0 40 40"><title>wait until date</title><g id="c94b9719-d73c-4e1c-bfa2-900cda876d5b" data-name="icon"><path d="M20,35H7a1,1,0,0,0,.05-.27V27a4.74,4.74,0,0,1,2.24-3.84,17.16,17.16,0,0,1,3.11-1.54,1,1,0,0,0,.64-.93V19.22a1,1,0,0,0-.64-.93,17.16,17.16,0,0,1-3.11-1.54,4.74,4.74,0,0,1-2.24-3.84V5s0,0,0,0H20.92s0,0,0,0v7.89a4.74,4.74,0,0,1-2.24,3.84,17.16,17.16,0,0,1-3.11,1.54,1,1,0,0,0-.64.93V20.7a1,1,0,0,0,.64.93,17.15,17.15,0,0,1,3.11,1.54,5,5,0,0,1,1.38,1.32,3,3,0,0,1,1.25-2,6.86,6.86,0,0,0-1.46-1.26,18.25,18.25,0,0,0-2.67-1.39,18.22,18.22,0,0,0,2.67-1.39,6.5,6.5,0,0,0,3.07-5.37V5h1.67a1,1,0,1,0,0-2H3.42a1,1,0,0,0,0,2H5.08v8.11a6.5,6.5,0,0,0,3.07,5.37,18.22,18.22,0,0,0,2.67,1.39,18.25,18.25,0,0,0-2.67,1.39,6.5,6.5,0,0,0-3.07,5.37v8.09a1,1,0,0,0,.05.27H3.33a1,1,0,0,0,0,2H20Z" fill="black"></path><path d="M39,24H35.73V22.15a.8.8,0,0,0-1.6,0V24H27.57V22.15a.8.8,0,0,0-1.6,0V24H23a1,1,0,0,0-1,1V39a1,1,0,0,0,1,1H39a1,1,0,0,0,1-1V25A1,1,0,0,0,39,24Zm-3.82,1.13a.71.71,0,1,1-.71.71A.71.71,0,0,1,35.18,25.13Zm-8.33,0a.71.71,0,1,1-.71.71A.71.71,0,0,1,26.84,25.13Zm9,6.46-6,6-3.2-3.2a.5.5,0,0,1,.71-.71l2.5,2.49,5.3-5.3a.5.5,0,0,1,.71.71Zm2.82-2.65H23.36v-1H38.68Z" fill="#0079ad"></path></g></svg>