<svg xmlns="http://www.w3.org/2000/svg" viewBox="0 0 40 40">
  <title>wait custom event</title>
  <g id="wait-custom-event" data-name="icon">
    <path fill="hsl(200, 10%, 47%)" d="M20 35H7a1 1 0 0 0 .05-.27V27a4.74 4.74 0 0 1 2.24-3.84 17 17 0 0 1 3.11-1.54 1 1 0 0 0 .64-.93v-1.47a1 1 0 0 0-.64-.93 17 17 0 0 1-3.11-1.54 4.74 4.74 0 0 1-2.24-3.84V5h13.87v7.89a4.74 4.74 0 0 1-2.24 3.84 17 17 0 0 1-3.11 1.54 1 1 0 0 0-.64.93v1.5a1 1 0 0 0 .64.93 17 17 0 0 1 3.11 1.54A5 5 0 0 1 20 24.41v-3l-.16-.11a18 18 0 0 0-2.67-1.39 18 18 0 0 0 2.67-1.39 6.5 6.5 0 0 0 3.07-5.37V5h1.67a1 1 0 1 0 0-2H3.42a1 1 0 0 0 0 2h1.66v8.11a6.5 6.5 0 0 0 3.07 5.37 18 18 0 0 0 2.67 1.39 18 18 0 0 0-2.67 1.39 6.5 6.5 0 0 0-3.07 5.37v8.09a1 1 0 0 0 .05.27h-1.8a1 1 0 0 0 0 2H20Z"/>
    <path fill="hsl(9, 100%, 44%)" d="M33.15 21.75c-3.09 0-4-2-7.6-2A4.8 4.8 0 0 0 24 20v-.6a1 1 0 1 0-2 0V39a1 1 0 0 0 2 0v-8.21a4.8 4.8 0 0 1 1.55-.28c3.63 0 4.51 2 7.6 2a6.55 6.55 0 0 0 3.78-1.17.49.49 0 0 0 .2-.4v-9.58a.5.5 0 0 0-.75-.43 6.7 6.7 0 0 1-3.23.82"/>
  </g>
</svg>
