<svg xmlns="http://www.w3.org/2000/svg" viewBox="0 0 40 40">
  <title>waiting event</title>
  <g id="waiting-event" data-name="icon">
    <path fill="hsl(198, 99%, 34%)" d="m30.09 33.72 9.3-9.52a1.06 1.06 0 0 0-.59-.2H21l-.11.27Z"/>
    <path fill="hsl(198, 99%, 34%)" d="M31.17 34.69a1.34 1.34 0 0 1-1.93 0L20 25.18v13.68a1.15 1.15 0 0 0 .3.77l5.29-5.45.94 1-4.7 4.82h16.62l-4.71-4.85.94-1 5.13 5.27a1.13 1.13 0 0 0 .19-.6V25.61Z"/>
    <path fill="hsl(200, 10%, 47%)" d="M18 35H7a1 1 0 0 0 .05-.27V27a4.74 4.74 0 0 1 2.24-3.84 17 17 0 0 1 3.11-1.54 1 1 0 0 0 .64-.93v-1.47a1 1 0 0 0-.64-.93 17 17 0 0 1-3.11-1.54 4.74 4.74 0 0 1-2.24-3.84V5h14v7.91a4.74 4.74 0 0 1-2.24 3.84 17 17 0 0 1-3.11 1.54 1 1 0 0 0-.64.94v1.46a1 1 0 0 0 .64.94 17 17 0 0 1 2.63 1.26A2 2 0 0 1 20 22h1a7 7 0 0 0-.95-.73 18.4 18.4 0 0 0-2.66-1.39A18.4 18.4 0 0 0 20 18.49a6.5 6.5 0 0 0 3.07-5.37V5h2.34a1 1 0 1 0 0-2h-22a1 1 0 0 0 0 2h1.67v8.11a6.5 6.5 0 0 0 3.07 5.37 18 18 0 0 0 2.67 1.39 18 18 0 0 0-2.67 1.39 6.5 6.5 0 0 0-3.07 5.37v8.09a1 1 0 0 0 .05.27h-1.8a1 1 0 0 0 0 2H18Z"/>
  </g>
</svg>
