<svg xmlns="http://www.w3.org/2000/svg" viewBox="0 0 40 40"><title>link</title><g id="0c3af205-1ae9-4f8e-a025-f5e4303fe25d" data-name="icon"><path d="M36,38H4a2,2,0,0,1-2-2V4A2,2,0,0,1,4,2H36a2,2,0,0,1,2,2V36A2,2,0,0,1,36,38ZM4,4V36H36V4Z" fill="#0079ad"></path><path d="M27.42,21H21V16H19v5H12.37A1.37,1.37,0,0,0,11,22.37V26h2V23H27v3h2V22.69C28.79,21.94,27.42,21,27.42,21Z" fill="#66d1ff"></path><rect x="7" y="28" width="11" height="5" rx="1" ry="1" fill="#66d1ff"></rect><path d="M32.47,33H23.4A4.77,4.77,0,0,1,22,31.33V29.07A1.48,1.48,0,0,1,23.4,28h9.07c.63-.07,1.13.44.53,1.07v2.27C33.6,32,33.09,32.47,32.47,33Z" fill="#66d1ff"></path><path d="M19.63,14.88l-6-2.88a1.06,1.06,0,0,1,.06-1.9l6.22-3.25a1.06,1.06,0,0,1,1,0l6,2.88a1.06,1.06,0,0,1-.06,1.9l-6.22,3.25A1.06,1.06,0,0,1,19.63,14.88Z" fill="#66d1ff"></path></g></svg>