<svg xmlns="http://www.w3.org/2000/svg" viewBox="0 0 40 40"><title>workflow note</title><g id="44370a26-d478-48d9-ae39-1ebef885e3a8" data-name="icon"><path d="M35.71,2H4.29A2.25,2.25,0,0,0,2,4.2V35.8A2.25,2.25,0,0,0,4.29,38H25a2,2,0,0,0,1.42-.59l11-11A2,2,0,0,0,38,25V4.2A2.25,2.25,0,0,0,35.71,2ZM4.29,36c-.17,0-.29-.11-.29-.2V4.2c0-.09.13-.2.29-.2H35.71c.17,0,.29.11.29.2V25l0,0h0l0,0,0,0H26.8A1.8,1.8,0,0,0,25,26.8V36l0,0ZM27,34.26V27a.17.17,0,0,1,.17-.17H34.5Z" fill="var(--cds-alias-utility-gray)"></path><rect x="10" y="12" width="20" height="2" fill="var(--cds-alias-utility-gray)"></rect><rect x="10" y="18" width="20" height="2" fill="var(--cds-alias-utility-gray)"></rect><rect x="10" y="24" width="11" height="2" fill="var(--cds-alias-utility-gray)"></rect></g></svg>