<svg xmlns="http://www.w3.org/2000/svg" viewBox="0 0 40 40">
  <title>workflow schedule</title>
  <g id="workflow-schedule" data-name="icon">
    <path fill="hsl(198, 100%, 70%)" d="m17.67 13.45-5.36-2.56a1 1 0 0 1 .05-1.69l5.53-2.88a1 1 0 0 1 .85 0l5.36 2.56a1 1 0 0 1-.1 1.66l-5.53 2.88a1 1 0 0 1-.8.03"/>
    <rect width="9.78" height="4.44" x="6.44" y="25.11" fill="hsl(198, 100%, 70%)" rx="1" ry="1"/>
    <path fill="hsl(198, 99%, 34%)" d="M20 32H4V4h28v18h.14A2.8 2.8 0 0 1 34 19.52V4a2 2 0 0 0-2-2H4a2 2 0 0 0-2 2v28a2 2 0 0 0 2 2h16Z"/>
    <path fill="hsl(198, 100%, 70%)" d="M24.22 20.83h.09a2.8 2.8 0 0 1 1.48-1.29 1.31 1.31 0 0 0-1.2-.65h-5.7v-4.45h-1.78v4.44h-5.9A1.21 1.21 0 0 0 10 20.1v3.23h1.78v-2.66h12.44Z"/>
    <path fill="hsl(198, 99%, 34%)" d="M39 24h-3.27v-1.85a.8.8 0 0 0-1.6 0V24h-6.56v-1.85a.8.8 0 1 0-1.6 0V24H23a1 1 0 0 0-1 1v14a1 1 0 0 0 1 1h16a1 1 0 0 0 1-1V25a1 1 0 0 0-1-1m-3.82 1.13a.71.71 0 1 1-.71.71.71.71 0 0 1 .71-.71m-8.33 0a.71.71 0 1 1-.71.71.71.71 0 0 1 .7-.71Zm9 6.46-6 6-3.2-3.2a.5.5 0 0 1 .71-.71l2.5 2.49 5.3-5.3a.5.5 0 0 1 .71.71Zm2.82-2.65H23.36v-1h15.32Z"/>
  </g>
</svg>
