<svg xmlns="http://www.w3.org/2000/svg" viewBox="0 0 40 40">
  <title>workflow note</title>
  <g id="workflow-note" data-name="icon">
    <path fill="hsl(200, 10%, 47%)" d="M35.71 2H4.29A2.25 2.25 0 0 0 2 4.2v31.6A2.25 2.25 0 0 0 4.29 38H25a2 2 0 0 0 1.42-.59l11-11A2 2 0 0 0 38 25V4.2A2.25 2.25 0 0 0 35.71 2M4.29 36c-.17 0-.29-.11-.29-.2V4.2c0-.09.13-.2.29-.2h31.42c.17 0 .29.11.29.2V25h-9.2a1.8 1.8 0 0 0-1.8 1.8V36ZM27 34.26V27a.17.17 0 0 1 .17-.17h7.33Z"/>
    <path fill="hsl(200, 10%, 47%)" d="M10 12h20v2H10zm0 6h20v2H10zm0 6h11v2H10z"/>
  </g>
</svg>
