<svg xmlns="http://www.w3.org/2000/svg" viewBox="0 0 40 40">
  <title>workflow async</title>
  <g id="workflow-async" data-name="icon">
    <path fill="hsl(198, 100%, 70%)" d="M24.6 18.89h-5.71v-4.45h-1.78v4.44h-5.9A1.21 1.21 0 0 0 10 20.1v3.23h1.78v-2.66h12.44v2.67H26v-2.95c0-1.31-.64-1.5-1.4-1.5"/>
    <rect width="9.78" height="4.44" x="6.44" y="25.11" fill="hsl(198, 100%, 70%)" rx="1" ry="1"/>
    <path fill="hsl(198, 100%, 70%)" d="m17.67 13.45-5.36-2.56a1 1 0 0 1 .05-1.69l5.53-2.88a1 1 0 0 1 .85 0l5.36 2.56a1 1 0 0 1-.1 1.66l-5.53 2.88a1 1 0 0 1-.8.03"/>
    <path fill="hsl(198, 99%, 34%)" d="M26.14 32H4V4h28v17.74h2V4a2 2 0 0 0-2-2H4a2 2 0 0 0-2 2v28a2 2 0 0 0 2 2h20.14Z"/>
    <path fill="hsl(198, 100%, 70%)" d="M29.75 28.39a.8.8 0 0 0-.12-.22h-1.15a3.21 3.21 0 0 1-3.2-3.06H21a1.32 1.32 0 0 0-1.24.95v2a4.24 4.24 0 0 0 1.24 1.5h7.56Z"/>
    <path fill="hsl(198, 99%, 34%)" d="M28.16 23.74a1.22 1.22 0 0 0 0 2.43h6.31L24.36 36.29A1.22 1.22 0 1 0 26.08 38l10.11-10.11v6.31a1.22 1.22 0 1 0 2.43 0V23.74Z"/>
  </g>
</svg>
